<svg xmlns="http://www.w3.org/2000/svg" xmlns:osb="http://www.openswatchbook.org/uri/2009/osb" id="svg8" width="1080" height="780" version="1.1" viewBox="0 0 285.75001 206.37501">
  <defs id="defs2">
    <linearGradient osb:paint="solid" id="linearGradient11801">
      <stop id="stop11799" offset="0" stop-color="#000" stop-opacity="1"/>
    </linearGradient>
    <linearGradient osb:paint="solid" id="linearGradient10723">
      <stop id="stop10721" offset="0" stop-color="#007600" stop-opacity="1"/>
    </linearGradient>
  </defs>
  <g id="layer7" display="inline" opacity="1" transform="translate(-240.45746 -7.9953284)">
    <g id="g10341" display="inline" transform="translate(236.87463 4.8706085) scale(.5747154)">
      <g id="layer1-5" fill="#A8D8EA" display="inline" opacity="1" transform="translate(2.928021 -.25319209) scale(.44457406)">
        <g id="g6525" fill="#A8D8EA" transform="translate(-2.8934558 5.7869368)">
          <g id="g5389" fill="#A8D8EA" transform="translate(-1268.5058 286.43679)">
            <path id="path4593" fill="#A8D8EA" stroke-width="1.33333337" d="M1950.6638 523.72643c-10.9379-2.1223-19.2136-5.1001-27.2285-9.79753-4.5363-2.65863-9.0179-4.83385-9.9593-4.83385-.9413 0-5.0719-2.40638-9.1792-5.3475l-7.4677-5.3475-6.808 4.01417c-3.7444 2.20779-7.248 4.01416-7.7858 4.01416-1.8609 0-8.5258-8.61213-9.0953-11.75256-.3145-1.73429-1.504-5.64944-2.6433-8.70035-1.1394-3.0509-2.3647-8.41041-2.7231-11.91001-.3584-3.4996-1.9779-9.62298-3.599-13.6075-3.3006-8.11281-5.7949-10.24649-26.6447-22.79293-7.2236-4.34683-14.1236-8.51147-15.3333-9.25475-1.2097-.74328-7.5995-4.30866-14.1995-7.92308-6.6-3.61441-22.4004-12.51974-24.3873-13.8979-4.5427-3.15078-28.655-16.98974-31.3233-18.81754-9.0155-6.17562-10.4033-14.17162-4.9772-28.67672 7.5869-20.28145 8.7606-32.47365 5.3938-56.03017-.8361-5.85007-1.827-13.0304-2.202-15.95628-.7176-5.59887-3.4518-10.82472-9.0999-17.39231-1.8705-2.17501-3.4016-4.34039-3.4025-4.81192-.01-2.72099-4.3312-1.62429-9.4505 2.39579-12.1625 9.55096-16.6007 13.25869-21.3007 17.79489-2.6594 2.56667-6.5786 6.22292-8.7095 8.125-2.1308 1.90209-5.166 4.90209-6.7448 6.66667-4.6483 5.19524-9.4023 9.20833-10.9084 9.20833-.7718 0-2.1872 1.07743-3.1455 2.39428-.9582 1.31685-4.1422 3.8444-7.0756 5.61677-2.9333 1.77236-6.0168 3.84494-6.8522 4.60571-.8354.76079-3.2129 2.58324-5.2834 4.04991-4.435 3.14165-17.2206 14.41298-21.5976 19.0396-6.6154 6.99268-23.9175 27.81643-25.3749 30.53972-.8476 1.58368-2.295 3.70357-3.2165 4.71088-.9214 1.00731-2.8018 3.90409-4.1785 6.43731-3.753 6.90532-6.9987 12.52521-10.5028 18.18554-1.7321 2.79782-4.2492 7.48695-5.5936 10.42028-1.3444 2.93334-5.0684 10.86759-8.2755 17.63167-6.4054 13.50983-8.6855 18.80833-9.2203 21.42619-.461 2.25622-6.9835 14.71216-9.0006 17.18825-6.7088 8.23515-22.6795 17.50912-45.5707 26.46236-5.1334 2.00776-10.0771 4.23795-10.986 4.95598-1.0287.8126-9.335.97033-22 .41777-23.8152-1.03903-27.6807-1.62671-27.6807-4.20835 0-2.04993 7.2921-15.83973 10.1978-19.2846.9638-1.14256 4.16-6.84256 7.1028-12.66667 2.9428-5.82409 6.5541-12.6799 8.025-15.23513 5.181-9.67947 8.519-22.58546 15.7836-25.47999 2.69-.87665 5.2787-2.1919 5.7528-2.9228.4741-.73089 3.7741-1.48145 7.3334-1.66793 3.706-.19416 8.9659-1.68964 12.3093-3.49975 5.2414-2.83769 6.6941-4.82774 14.2144-19.47218 4.6071-8.97132 24.6142-47.64747 24.6142-50.91285 0-.64765 1.301-4.0773 2.8911-7.62142 1.5901-3.54414 2.9561-6.74388 3.0355-7.11055.079-.36667 1.8358-4.20097 3.9032-8.52067 2.0674-4.3197 4.9239-10.57164 6.3476-13.89318 2.9882-6.9712 6.7166-10.7772 14.7633-15.07076 18.7266-9.99214 27.4447-18.7311 37.5057-37.5952 2.8122-5.27278 6.5174-11.75624 8.2337-14.40772 2.7292-4.21613 4.2885-8.53111 6.929-19.17394 1.2919-5.20724.4884-22.77536-1.3723-30.0052-1.0381-4.03333-1.9991-12.71641-2.1356-19.29575-.1365-6.57933-.4964-12.2106-.7997-12.51394-1.1244-1.12439-7.0724 3.93256-23.9681 20.37749-9.5334 9.279-21.9834 21.38843-27.6667 26.90985-5.6833 5.52143-10.3333 10.7657-10.3333 11.65392 0 .88824-1.95 3.4552-4.3334 5.70436-4.3316 4.0878-4.7717 5.21282-11.6685 29.83074-1.5409 5.5-4.0092 12.25-5.4852 15-1.4759 2.75-2.351 5-1.9446 5 .708 0-.1953 1.1898-6.9181 9.11203-1.6591 1.95505-5.2591 6.67584-8 10.49065-2.741 3.81481-5.7355 6.96481-6.6547 7-2.1269.0815-13.1025 11.2148-18.3289 18.59244-5.6607 7.99081-13.6735 15.64277-20.6666 19.73611-3.3 1.93161-7.9206 4.96106-10.268 6.73212-2.3473 1.77104-5.2453 3.36353-6.4399 3.53886-2.8303 1.40898-6.2102 3.83733-7.4099 5.31128-1.5314 1.94688-4.5633 4.45971-6.7375 5.58406-2.1743 1.12435-5.1372 3.22827-6.5843 4.67537-1.4471 1.4471-7.2652 5.051-12.9291 8.00867-19.0239 9.93423-23.1668 12.52063-31.3178 19.55175-8.3856 7.2335-9.1514 7.50357-20.3135 7.16406-4.2068-.128-9.0636.82784-13.1627 2.59028-10.6733 4.58915-20.6032 3.82872-33.504-2.56573-12.8121-6.35049-22.919-10.85528-24.355-10.85528-2.0017 0-9.3784-7.61683-11.6718-12.05177-1.2671-2.45035-3.5794-5.52115-5.1385-6.82402-1.5591-1.30285-2.3867-2.38878-1.8391-2.41318.5476-.0244-2.9024-4.05916-7.6666-8.96615-7.4062-12.50092-17.476-29.5116-15.5936-38.90106.7722-2.4331 12.3086-15.28606 16.9313-16.62196 1.4666-.42384 10.4666-1.11264 20-1.53065 14.4887-.63529 18.4274-1.28056 24-3.93187 3.6666-1.74452 10.4294-4.50696 15.0283-6.13876 4.5989-1.6318 8.6961-3.50812 9.105-4.16958.4088-.66148 3.396-2.44963 6.6383-3.97368 3.2423-1.52404 5.895-3.26414 5.895-3.86687 0-.60272 6.15-5.16296 13.6667-10.13387 13.8072-9.13094 27.6457-20.9597 27.6916-23.67.034-2.00978 7.9299-17.33015 13.0912-25.40096 2.3195-3.62691 4.2172-7.35667 4.2172-8.28835 0-1.77136 9.0889-16.8763 12.4-20.60764 1.0527-1.18637 4.3869-5.38637 7.4092-9.33333 3.0223-3.94697 8.5661-9.85293 12.3194-13.12436 3.7534-3.27144 10.8564-11.37144 15.7845-18 8.4569-12.56089 19.597-22.91025 29.5598-32.24456 1.7566-1.89407 9.1938-7.97456 16.5271-13.51222 7.3333-5.53765 13.5333-10.569476 13.7778-11.181822 11.2581-6.60306 24.7457-16.843954 36.2222-19.573121 1.1-.25288 3.2-.747227 4.6667-1.098573 1.4666-.351334 6.2666-1.132614 10.6666-1.736174 4.4-.603573 10.4621-2.02596 13.4712-3.160866 7.6311-2.878054 14.9823-3.828667 31.1955-4.033987 7.7-.09747 14.6-.530107 15.3333-.96132.7334-.431214 4.0334-.902934 7.3334-1.048254 3.4314-.15112 15.0651-6.37456 15.9214-7.406333.8563-1.03176 5.5742-4.43656 10.4844-7.566214 4.9101-3.129653 10.1275-6.730507 11.5942-8.001893 17.3399-9.34672 29.9566-19.832716 47.695-23.534333 31.1201-9.2961746 69.0669-6.364975 96.7341-4.489361 4.164.220493 10.5709.615706 14.2376.878226 3.6666.262534 11.1666.785254 16.6666 1.1616 5.5.376347 13.6.9938 18 1.372147 4.4.378333 15.65 1.048333 25 1.488907l17 .801026v-3.2912c0-2.388386-.9038-3.518053-3.2948-4.11816-4.7573-1.194-6.7481-5.5139333-4.2782-9.2834934 1.6482-2.51540004 4.0038-12.845307 2.9293-12.845307-.1929 0-3.2612 1.2874934-6.8186 2.8610934-6.9503 3.0744401-13.6996 3.5735735-15.2129 1.1250401-1.5832-2.5617068.01-11.1408941 2.5884-13.9709471 2.2442-2.4596 4.8499-8.35472 4.4469-10.06068-.2252-.95368 5.7955-11.203001 12.0334-20.485028 2.7831-4.1412 4.7225-8.075786 4.3098-8.743533-.4127-.667733 1.0156-2.2572 3.1739-3.532147s5.0103-4.76512 6.3377-7.755933c3.1566-7.111974 10.8112-15.411081 14.3326-15.539308 9.1672-.333786 16.6279-7.09268 8.1192-7.3554-2.2-.06787-6.4-.516853-9.3333-.9976-2.9334-.480746-7.5834-.9978-10.3334-1.149-2.75-.151213-5.5754-.496546-5.5754-1.08-2.1194-1.515649-2.6674-1.826227-2.5346-4.649892-1.637-10.61484 4.6308-21.69605 18.6049-23.33334.6685 0 4.3551-2.87142 8.1927-6.38094 3.8376-3.50954 8.0278-6.41499 9.3116-6.45659 8.0372-.26037 21.2177-5.26293 25.735-9.76747 2.5718-2.56462 6.9073-9.395 5.9632-9.395-.3836 0 .241-1.05 1.3879-2.33333 6.2222-6.96237 10.0047-12.0624 11.3721-15.33333.843-2.01667 1.9469-3.66667 2.453-3.66667.506 0 2.0987-1.09798 3.5391-2.43995 5.8584-5.45792 12.1487-8.31367 26.7297-12.13509 4.254-1.11488 7.2477-3.42114 13.1128-10.10151 5.0582-5.76145 8.5882-8.65678 10.5541-8.65678 1.6247 0 3.5988-.64488 4.387-1.43306.7882-.78819 3.7462-2.22829 6.5734-3.20022 4.182-1.4377 5.9414-3.22134 9.4372-9.56695 2.3633-4.28987 4.3253-8.8289 4.36-10.08671.1414-5.13338 14.5014-16.67414 22.2272-17.86358.8237-.12681 3.8237-1.34012 6.6667-2.69625 2.843-1.35613 5.4691-2.51525 5.8358-2.57583 12.1244-2.00317 13.3588-2.47258 17.5302-6.666 3.9808-4.00189 5.2738-4.49803 11.8203-4.53574 6.3225-.0364 7.5345-.46188 8.6666-3.04233.8734-1.99069 2.6792-3.13349 5.3674-3.39677 3.4062-.3336 5.6922 1.09916 14.3595 9 5.6696 5.16822 11.0079 9.39677 11.8629 9.39677.855 0 2.9114 1.27476 4.5699 2.83279 1.6585 1.55804 5.5971 3.3694 8.7526 4.02524 3.1555.65584 6.5413 1.37421 7.5241 1.59637 3.0655.69294 10.8643 7.54724 14.8543 13.05534 3.5421 4.88974 3.7809 5.9836 3.293 15.08746l-.526 9.81549 6.0457 4.46032c3.3252 2.45318 7.7449 5.81032 9.8217 7.46032 2.0768 1.65 4.3474 3 5.0457 3 .6983 0 3.3792 1.95 5.9576 4.33334 2.5784 2.38333 7.1464 6.297 10.151 8.69703 3.2337 2.58292 5.1748 5.11508 4.7566 6.20489-.3969 1.0344 1.8174 4.4586 5.0535 7.81449 3.168 3.28532 7.8963 8.29313 10.5073 11.12845 4.6205 5.01754 6.5222 6.65167 23.2527 19.98128 4.4 3.50559 9.3214 7.75382 10.9364 9.4405 1.615 1.68668 3.2188 3.06669 3.5641 3.06669.3452 0 2.3587 1.65 4.4744 3.66667 4.8765 4.64841 9.5053 8.33333 10.4678 8.33333.8656 0 12.8694 9.90655 17.434 14.387935 4.7608 4.674041 7.0882 10.142574 7.4038 17.396508.2463 5.661173-.4283 7.673426-4.7588 14.195693-2.9554 6.398486-5.7625 11.713665-8.8711 17.384441-3.1213 6.068907-6.2713 7.950933-11.8449 7.07704-2.0968-.328747-3.8361 1.09192-6.8055 5.558387-3.3526 6.130194-3.8522 3.888141-7.934 5.96576-2.1635 1.118827-6.292 2.03424-9.1743 2.03424-4.6589 0-5.8873-.758427-11.0663-6.832427-11.7423-13.771707-15.0366-15.893027-30.4922-19.634854-6.2334-1.509106-20.3334-4.923933-31.3334-7.58852s-23.2437-5.185693-27.2082-5.60248l-7.2083-.757787.875 4.37508c.4813 2.406307 1.5325 12.849921 2.3362 23.208041.8036 10.35812 1.6589 20.932947 1.9006 23.499614.2417 2.566667.5772 21.2650406.7454 41.551935l.3059 36.885281 3.1267 1.67336c1.7197.92036 3.1267 2.43292 3.1267 3.361266 0 .928347.6832 3.37696 1.5181 5.441361.8349 2.064413 1.7579 8.553466 2.0511 14.420133.2931 5.866667 1.074 12.661427 1.7352 15.099467.4252 8.116446 1.7503 14.602596 1.9309 22.233866.098 5.32648.1057 5.3341 6.098 5.92635 10.2432 1.01239 42.334.79507 64.8678-.43929l21.023.35486 9.9383 4.3664c25.1355 25.19769 33.2221 57.45666 46.6559 86.74735 9.9753 21.09057 11.1116 25.31447 9.4213 35.02095-1.2866 7.38785-2.5736 9.63979-13.3318 23.32627-6.5493 8.33193-11.9078 16.05005-11.9078 17.15138 0 1.10134-1.0009 3.10843-2.2242 4.4602-1.2234 1.35179-2.3102 3.49903-2.4152 4.77166-.4614 5.59134-5.2859 11.46986-8.4572 10.30465-3.1117-1.14336-6.5639 1.79933-9.6924 8.26199-1.6768 3.46388-5.1304 8.6021-7.6747 11.41829l-4.6259 5.12033-3.7658-6.39569c-5.5356-11.89114-9.9068-25.64956-14.5591-35.21921-1.0749-2.19907-4.2582-12.7597-4.5745-15.17648-.096-.73334.4622-2.17538 1.2406-3.20455.7783-1.02917 1.4518-3.12917 1.4966-4.66667.1364-4.68254 1.9194-12.47197 3.9879-17.42266 1.0786-2.58136 2.0046-4.94668 2.0577-5.25627.053-.30959 3.6463-4.16803 7.9848-8.57431 8.5153-8.6484 9.4491-11.65569 6.0054-19.34071-1.0355-2.31082-4.1529-9.6015-6.9276-16.2015-11.9135-28.33766-14.8288-29.77748-42.7789-21.12754-8.6593 2.67986-20.8441 6.22178-27.0775 7.87092-12.027 3.18198-35.9363 11.10463-39.8866 12.5485-3.9502 1.44386-10.5417 3.01065-14.6478 3.48174-10.2637 1.81869-20.8667 3.82141-30.1322 3.5664-19.0222 3.70013-46.462 11.5404-58.2651 23.65852-4.708 8.23491-10.0628 15.56824-16.0363 22.61637-3.0788 3.60653-11.6986 17.46266-11.6986 18.80526-3.7554 4.15125-6.8053 9.14678-10.1067 12.74558-5.5915 6.0533-12.3912 17.3642-23.8678 39.70294-4.5582 8.87222-11.088 21.38131-14.5108 27.79798-3.4227 6.41667-10.71 23.70333-11.356 24.4-2.3444 2.52819-13.6759 40.07545-13.6949 45.37823-.026 7.26744 2.2819 15.44852 5.5188 19.5635 2.7146 3.45107 19.4669 12.64432 28.3513 15.55854 5.1411 1.68636 5.4754 2.29072 6.8094 12.311.4036 3.03165 3.2119 8.40108 7.4197 14.18625 3.7236 5.11958 6.7703 9.97451 6.7703 10.78874 0 1.04373-9.4084 1.48041-31.8961 1.48041h-31.8961l-4.7706-5.57333c-2.6238-3.06534-4.7705-6.06534-4.7705-6.66667 0-2.26588-2.7871-.89529-11.3334 5.57333-9.4724 7.16964-11.77 7.81299-16.3776 4.58574-4.2015-2.94288-6.2962-7.5885-9.5968-21.28449-4.7715-19.79873-3.5749-33.31073 4.602-51.96792.9642-2.2 2.3472-6.4 3.0734-9.33333.7261-2.93333 2.5756-8.33333 4.11-12 3.6097-8.62583 9.5704-23.621 10.0703-25.33333.2141-.73334 1.88-4.63334 3.7021-8.66667 3.1759-7.02991 4.9027-11.31127 5.1047-12.65647.7897-4.488 4.2217-9.42121 4.825-13.67687.3504-9.68014 1.096-17.10504 1.7741-17.66666 1.5777-1.30667 9.1097-18.12426 11.3459-25.33334 1.2511-4.03333 2.6187-8.23333 3.039-9.33333.4204-1.1.8161-2.31889.8794-2.70865.063-.38975 3.5228-8.78975 7.6876-18.66667 9.7976-23.23504 9.7888-23.21095 11.1823-30.84947l.8923-4.89147-52.4902-.6693c-28.8696-.36814-54.5901-.97664-57.1568-1.35226-2.5667-.3756-7.3667-1.04594-10.6667-1.48965-3.3-.44369-7.8621-1.40156-10.138-2.12857-4.6061-1.47136-9.1188-2.52475-13.3227-3.10984-1.5368-.21388-3.4924-.82044-4.3459-1.34792-1.9632-1.21335-23.1994-2.87582-29.133-2.28064-.8834.0887-1.9716 2.4111-2.4182 5.1611-1.7875 13.21131-6.71 25.97457-9.0624 37.66989-2.2794 11.53724-13.5142 57.17938-15.7028 63.7935-2.3323 7.04832-1.4286 20.90779 1.7647 27.06287 2.6642 5.13511 8.6451 11.51031 18.5823 19.80708 8.153 6.80711 12.3365 9.70358 21.0309 14.56072 5.4952 3.1933 10.9983 7.46888 15.8163 10.09675 5.735 3.90056 12.553 6.56483 18.0729 9.98856 4.6626 2.94468 9.0126 5.39381 9.6667 5.44249.6541.0487 3.8683 2.03452 7.1427 4.41295 5.9497 4.32175 11.7273 12.64781 15.746 22.69137 1.1726 2.93074 5.1699 9.77204 8.8829 15.2029 3.713 5.43086 7.351 10.86353 8.0843 12.07261.7333 1.20908 1.7499 2.51308 2.2591 2.89779 2.2365 1.68981 3.6162 12.69655 2.117 16.88849-1.6928 4.73342-.5648 9.86504 5.1098 23.24544 1.7494 4.12503 3.1808 8.17503 3.1808 9 0 1.6653-5.8132 1.71983-14 .13134z"/>
          </g>
        </g>
      </g>
    </g>
  </g>
</svg>